<svg width="75" height="44" viewBox="0 0 75 44" fill="none" xmlns="http://www.w3.org/2000/svg">
<path d="M36.6054 18.1601L35.0554 26.3701C34.97 26.8299 34.7742 27.2592 34.4854 27.6201C32.7388 29.8001 30.6788 31.7334 28.3054 33.4201C23.0721 37.1334 18.8954 40.1201 15.7754 42.3801C14.879 43.0364 13.8002 43.3902 12.6954 43.3901H0.415445C0.344035 43.3893 0.274004 43.3704 0.211965 43.335C0.149927 43.2996 0.097932 43.249 0.0608956 43.1879C0.0238593 43.1269 0.00300447 43.0574 0.000301086 42.986C-0.0024023 42.9147 0.0131355 42.8438 0.0454461 42.7801L21.5754 0.870098C21.7111 0.607715 21.9154 0.387739 22.1658 0.234279C22.4163 0.080819 22.7033 -0.000201032 22.9954 9.84183e-05H35.7254C35.7679 -0.00113709 35.8097 0.00927872 35.8466 0.0302879C35.8834 0.0512971 35.9141 0.0821529 35.9354 0.119724C35.9567 0.157296 35.968 0.200246 35.968 0.244218C35.968 0.28819 35.9568 0.331619 35.9354 0.370098C32.0754 7.2201 28.2654 16.9901 22.9154 24.7501C22.8757 24.8064 22.8565 24.8746 22.8611 24.9433C22.8657 25.0121 22.8939 25.0771 22.9408 25.1276C22.9877 25.178 23.0506 25.2108 23.1188 25.2203C23.187 25.2299 23.2565 25.2157 23.3154 25.1801L36.0954 17.8001C36.1521 17.7655 36.2176 17.7482 36.284 17.7504C36.3503 17.7526 36.4145 17.7742 36.4688 17.8125C36.523 17.8507 36.5648 17.9041 36.5891 17.9658C36.6134 18.0276 36.6191 18.0951 36.6054 18.1601Z" fill="white"/>
<path d="M38.0073 18.1601L39.5573 26.3701C39.6427 26.8299 39.8385 27.2592 40.1273 27.6201C41.8739 29.8001 43.9339 31.7334 46.3073 33.4201C51.5406 37.1334 55.7173 40.1201 58.8373 42.3801C59.7337 43.0364 60.8125 43.3902 61.9173 43.3901H74.1973C74.2687 43.3893 74.3387 43.3704 74.4007 43.335C74.4628 43.2996 74.5148 43.249 74.5518 43.1879C74.5888 43.1269 74.6097 43.0574 74.6124 42.986C74.6151 42.9147 74.5996 42.8438 74.5673 42.7801L53.0373 0.870098C52.9016 0.607715 52.6973 0.387739 52.4469 0.234279C52.1964 0.080819 51.9094 -0.000201032 51.6173 9.84183e-05H38.8873C38.8448 -0.00113709 38.803 0.00927872 38.7661 0.0302879C38.7293 0.0512971 38.6986 0.0821529 38.6773 0.119724C38.656 0.157296 38.6447 0.200246 38.6447 0.244218C38.6447 0.28819 38.6559 0.331619 38.6773 0.370098C42.5373 7.2201 46.3473 16.9901 51.6973 24.7501C51.737 24.8064 51.7562 24.8746 51.7516 24.9433C51.747 25.0121 51.7188 25.0771 51.6719 25.1276C51.625 25.178 51.5621 25.2108 51.4939 25.2203C51.4257 25.2299 51.3562 25.2157 51.2973 25.1801L38.5173 17.8001C38.4606 17.7655 38.3951 17.7482 38.3287 17.7504C38.2624 17.7526 38.1982 17.7742 38.1439 17.8125C38.0897 17.8507 38.0479 17.9041 38.0236 17.9658C37.9993 18.0276 37.9936 18.0951 38.0073 18.1601Z" fill="white"/>
</svg>
