<svg width="114" height="114" viewBox="0 0 114 114" fill="none" xmlns="http://www.w3.org/2000/svg">
<circle cx="57" cy="57" r="57" fill="black"/>
<path d="M56.6054 53.1601L55.0554 61.3701C54.97 61.8299 54.7742 62.2592 54.4854 62.6201C52.7388 64.8001 50.6788 66.7334 48.3054 68.4201C43.0721 72.1334 38.8954 75.1201 35.7754 77.3801C34.879 78.0364 33.8002 78.3902 32.6954 78.3901H20.4154C20.344 78.3893 20.274 78.3704 20.212 78.335C20.1499 78.2996 20.0979 78.249 20.0609 78.1879C20.0239 78.1269 20.003 78.0574 20.0003 77.986C19.9976 77.9147 20.0131 77.8438 20.0454 77.7801L41.5754 35.8701C41.7111 35.6077 41.9154 35.3877 42.1658 35.2343C42.4163 35.0808 42.7033 34.9998 42.9954 35.0001H55.7254C55.7679 34.9989 55.8097 35.0093 55.8466 35.0303C55.8834 35.0513 55.9141 35.0822 55.9354 35.1197C55.9567 35.1573 55.968 35.2002 55.968 35.2442C55.968 35.2882 55.9568 35.3316 55.9354 35.3701C52.0754 42.2201 48.2654 51.9901 42.9154 59.7501C42.8757 59.8064 42.8565 59.8746 42.8611 59.9433C42.8657 60.0121 42.8939 60.0771 42.9408 60.1276C42.9877 60.178 43.0506 60.2108 43.1188 60.2203C43.187 60.2299 43.2565 60.2157 43.3154 60.1801L56.0954 52.8001C56.1521 52.7655 56.2176 52.7482 56.284 52.7504C56.3503 52.7526 56.4145 52.7742 56.4688 52.8125C56.523 52.8507 56.5648 52.9041 56.5891 52.9658C56.6134 53.0276 56.6191 53.0951 56.6054 53.1601Z" fill="white"/>
<path d="M58.0073 53.1601L59.5573 61.3701C59.6427 61.8299 59.8385 62.2592 60.1273 62.6201C61.8739 64.8001 63.9339 66.7334 66.3073 68.4201C71.5406 72.1334 75.7173 75.1201 78.8373 77.3801C79.7337 78.0364 80.8125 78.3902 81.9173 78.3901H94.1973C94.2687 78.3893 94.3387 78.3704 94.4007 78.335C94.4628 78.2996 94.5148 78.249 94.5518 78.1879C94.5888 78.1269 94.6097 78.0574 94.6124 77.986C94.6151 77.9147 94.5996 77.8438 94.5673 77.7801L73.0373 35.8701C72.9016 35.6077 72.6973 35.3877 72.4469 35.2343C72.1964 35.0808 71.9094 34.9998 71.6173 35.0001H58.8873C58.8448 34.9989 58.803 35.0093 58.7661 35.0303C58.7293 35.0513 58.6986 35.0822 58.6773 35.1197C58.656 35.1573 58.6447 35.2002 58.6447 35.2442C58.6447 35.2882 58.6559 35.3316 58.6773 35.3701C62.5373 42.2201 66.3473 51.9901 71.6973 59.7501C71.737 59.8064 71.7562 59.8746 71.7516 59.9433C71.747 60.0121 71.7188 60.0771 71.6719 60.1276C71.625 60.178 71.5621 60.2108 71.4939 60.2203C71.4257 60.2299 71.3562 60.2157 71.2973 60.1801L58.5173 52.8001C58.4606 52.7655 58.3951 52.7482 58.3287 52.7504C58.2624 52.7526 58.1982 52.7742 58.1439 52.8125C58.0897 52.8507 58.0479 52.9041 58.0236 52.9658C57.9993 53.0276 57.9936 53.0951 58.0073 53.1601Z" fill="white"/>
</svg>






















